<svg width="9" height="14" viewBox="0 0 9 14" fill="none" xmlns="http://www.w3.org/2000/svg">
<path d="M6.42882 4.83203C6.42882 6.01228 5.4662 6.97489 4.28596 6.97489C3.10571 6.97489 2.1431 6.01228 2.1431 4.83203C2.1431 3.65179 3.10571 2.68917 4.28596 2.68917C5.4662 2.68917 6.42882 3.65179 6.42882 4.83203ZM8.57167 4.83203C8.57167 2.46317 6.65482 0.546316 4.28596 0.546316C1.9171 0.546316 0.000244141 2.46317 0.000244141 4.83203C0.000244141 5.34263 0.0588379 5.86998 0.276472 6.33036L3.33172 12.8092C3.49913 13.1775 3.88417 13.4035 4.28596 13.4035C4.68774 13.4035 5.07279 13.1775 5.24857 12.8092L8.29545 6.33036C8.51308 5.86998 8.57167 5.34263 8.57167 4.83203Z" fill="#F4AF53" fill-opacity="0.7"/>
</svg>
