<svg width="626" height="256" viewBox="0 0 626 256" fill="none" xmlns="http://www.w3.org/2000/svg">
<path fill-rule="evenodd" clip-rule="evenodd" d="M415.295 10.9792C496.36 45.7549 512.569 151.215 550.788 230.715C584.76 301.38 628.455 369.413 625.272 447.755C622.005 528.146 590.296 607.808 533.162 664.457C478.314 718.84 395.39 720.772 322.933 747.528C236.587 779.413 158.169 856.875 68.5131 836.039C-23.5415 814.647 -100.735 732.65 -129.064 642.488C-155.655 557.856 -85.5564 476.894 -71.8685 389.245C-59.6467 310.985 -99.7711 222.406 -53.4288 158.169C-6.32732 92.8798 85.8205 88.319 162.629 64.1996C246.805 37.7662 334.212 -23.8046 415.295 10.9792Z" fill="#1D1A26"/>
</svg>
