<svg width="11" height="12" viewBox="0 0 11 12" fill="none" xmlns="http://www.w3.org/2000/svg">
<path d="M11 9.01953C11 8.96484 11 8.91016 10.9766 8.85547C10.9219 8.69141 10.5391 8.51953 10.3828 8.44141C9.9375 8.19141 9.48438 7.94922 9.04688 7.69141C8.84375 7.56641 8.59375 7.33203 8.35156 7.33203C7.875 7.33203 7.17969 8.74609 6.75781 8.74609C6.54688 8.74609 6.27344 8.55078 6.08594 8.44141C4.66406 7.65234 3.67969 6.66797 2.89063 5.24609C2.78125 5.05859 2.58594 4.78516 2.58594 4.57422C2.58594 4.15234 4 3.45703 4 2.98047C4 2.73828 3.76563 2.48828 3.64063 2.28516C3.38281 1.84766 3.14063 1.39453 2.89063 0.949219C2.8125 0.792968 2.64063 0.410156 2.47656 0.355468C2.42188 0.332031 2.36719 0.332031 2.3125 0.332031C2.03125 0.332031 1.48438 0.457031 1.22656 0.574218C0.84375 0.738281 0.59375 1.17578 0.398438 1.52734C0.148438 1.98828 0 2.45703 0 2.98047C0 3.70703 0.296875 4.36328 0.539063 5.02734C0.710938 5.50391 0.921875 5.96484 1.1875 6.39453C2.00781 7.72266 3.60938 9.32422 4.9375 10.1445C5.36719 10.4102 5.82813 10.6211 6.30469 10.793C6.96875 11.0352 7.625 11.332 8.35156 11.332C8.875 11.332 9.34375 11.1836 9.80469 10.9336C10.1563 10.7383 10.5938 10.4883 10.7578 10.1055C10.875 9.84766 11 9.30078 11 9.01953Z" fill="#F4AF53" fill-opacity="0.7"/>
</svg>
