<svg width="200" height="300" viewBox="0 0 575 300" fill="none" xmlns="http://www.w3.org/2000/svg">
<path fill-rule="evenodd" clip-rule="evenodd" d="M21.2156 -163.307C62.6689 -221.383 148.811 -216.021 218.228 -232.528C279.932 -247.2 341.23 -270.012 402.598 -253.996C465.571 -237.562 523.067 -198.774 557.994 -143.858C591.524 -91.1378 578.761 -25.2669 587.422 36.609C597.744 110.345 645.452 185.67 613.536 252.938C580.766 322.006 502.659 368.886 426.519 375.739C355.049 382.171 303.141 312.819 236.228 286.898C176.482 263.753 99.5606 280.201 56.7772 232.506C13.293 184.03 25.5669 110.416 19.7396 45.5557C13.3532 -25.527 -20.2471 -105.217 21.2156 -163.307Z" fill="#1D1A26"/>
</svg>
