<svg width="14" height="12" viewBox="0 0 14 12" fill="none" xmlns="http://www.w3.org/2000/svg">
<path d="M14.0002 3.87891C13.7659 4.13672 13.5002 4.36328 13.219 4.55859C11.9143 5.44141 10.6018 6.33203 9.32837 7.25391C8.67212 7.73828 7.85962 8.33203 7.00806 8.33203H7.00024H6.99243C6.14087 8.33203 5.32837 7.73828 4.67212 7.25391C3.39868 6.32422 2.08618 5.44141 0.789307 4.55859C0.500244 4.36328 0.234619 4.13672 0.000244141 3.87891V10.082C0.000244141 10.7695 0.562744 11.332 1.25024 11.332H12.7502C13.4377 11.332 14.0002 10.7695 14.0002 10.082V3.87891ZM14.0002 1.58203C14.0002 0.894531 13.4299 0.332031 12.7502 0.332031H1.25024C0.414307 0.332031 0.000244141 0.988281 0.000244141 1.75391C0.000244141 2.46484 0.789307 3.34766 1.34399 3.72266C2.55493 4.56641 3.78149 5.41016 4.99243 6.26172C5.50024 6.61328 6.35962 7.33203 6.99243 7.33203H7.00024H7.00806C7.64087 7.33203 8.50024 6.61328 9.00806 6.26172C10.219 5.41016 11.4456 4.56641 12.6643 3.72266C13.3518 3.24609 14.0002 2.45703 14.0002 1.58203Z" fill="#F4AF53" fill-opacity="0.7"/>
</svg>
