<svg width="13" height="14" viewBox="0 0 13 14" fill="none" xmlns="http://www.w3.org/2000/svg">
<path d="M7.50024 4.02846C7.50024 3.87779 7.38306 3.7606 7.23239 3.7606H6.69667C6.546 3.7606 6.42882 3.87779 6.42882 4.02846V6.97489H4.55382C4.40315 6.97489 4.28596 7.09208 4.28596 7.24275V7.77846C4.28596 7.92913 4.40315 8.04632 4.55382 8.04632H7.23239C7.38306 8.04632 7.50024 7.92913 7.50024 7.77846V4.02846ZM10.9824 6.97489C10.9824 9.48605 8.93998 11.5285 6.42882 11.5285C3.91766 11.5285 1.87524 9.48605 1.87524 6.97489C1.87524 4.46373 3.91766 2.42132 6.42882 2.42132C8.93998 2.42132 10.9824 4.46373 10.9824 6.97489ZM12.8574 6.97489C12.8574 3.42578 9.97792 0.546316 6.42882 0.546316C2.87971 0.546316 0.000244141 3.42578 0.000244141 6.97489C0.000244141 10.524 2.87971 13.4035 6.42882 13.4035C9.97792 13.4035 12.8574 10.524 12.8574 6.97489Z" fill="#F4AF53" fill-opacity="0.7"/>
</svg>
