<svg width="19" height="19" viewBox="0 0 19 19" fill="none" xmlns="http://www.w3.org/2000/svg">
<path d="M0.781982 16.2247C0.278076 16.7403 0.254639 17.6544 0.793701 18.1817C1.33276 18.709 2.23511 18.6973 2.75073 18.1934L9.40698 11.5372L16.0515 18.1934C16.5789 18.709 17.4812 18.7208 18.0085 18.1817C18.5359 17.6426 18.5476 16.752 18.0203 16.2247L11.364 9.56842L18.0203 2.92389C18.5476 2.39655 18.5476 1.4942 18.0085 0.966858C17.4695 0.439514 16.5789 0.439514 16.0515 0.955139L9.40698 7.61139L2.75073 0.955139C2.23511 0.451233 1.32104 0.427795 0.793701 0.966858C0.266357 1.50592 0.278076 2.40826 0.781982 2.91217L7.43823 9.56842L0.781982 16.2247Z" fill="#A7ADB7"/>
</svg>
