<svg width="16" height="16" viewBox="0 0 16 16" fill="none" xmlns="http://www.w3.org/2000/svg">
<path d="M8.25684 2.45251C8.74121 2.45251 9.13965 2.05408 9.13965 1.56189C9.13965 1.07751 8.74121 0.679077 8.25684 0.679077C7.76465 0.679077 7.36621 1.07751 7.36621 1.56189C7.36621 2.04626 7.77246 2.45251 8.25684 2.45251ZM12.2725 4.11658C12.6162 4.46033 13.1787 4.46033 13.5225 4.11658C13.874 3.77283 13.874 3.21033 13.5225 2.86658C13.1787 2.51501 12.624 2.51501 12.2725 2.86658C11.9287 3.21033 11.9287 3.77283 12.2725 4.11658ZM2.97559 4.12439C3.31934 4.46814 3.88184 4.46814 4.22559 4.12439C4.57715 3.76501 4.57715 3.21814 4.22559 2.87439C3.88184 2.52283 3.31934 2.52283 2.97559 2.87439C2.63184 3.21814 2.63184 3.77283 2.97559 4.12439ZM8.25684 11.9525C10.335 11.9525 12.0537 10.226 12.0537 8.14783C12.0537 6.0697 10.335 4.35095 8.25684 4.35095C6.17871 4.35095 4.45215 6.0697 4.45215 8.14783C4.45215 10.226 6.17871 11.9525 8.25684 11.9525ZM8.25684 10.7416C6.84277 10.7416 5.66309 9.56189 5.66309 8.14783C5.66309 6.74158 6.84277 5.56189 8.25684 5.56189C9.6709 5.56189 10.8428 6.73376 10.8428 8.14783C10.8428 9.56189 9.6709 10.7416 8.25684 10.7416ZM1.68652 9.03064C2.1709 9.03064 2.56934 8.62439 2.56934 8.14001C2.56934 7.65564 2.1709 7.2572 1.68652 7.2572C1.19434 7.2572 0.795898 7.65564 0.795898 8.14001C0.795898 8.6322 1.20215 9.03064 1.68652 9.03064ZM14.8271 9.07751C15.3115 9.07751 15.71 8.67908 15.71 8.1947C15.71 7.71033 15.3115 7.30408 14.8271 7.30408C14.3428 7.30408 13.9365 7.71033 13.9365 8.1947C13.9365 8.67908 14.335 9.07751 14.8271 9.07751ZM2.9834 13.4056C3.32715 13.7572 3.88965 13.7572 4.2334 13.4056C4.57715 13.0619 4.57715 12.4994 4.2334 12.1556C3.88965 11.8119 3.32715 11.8119 2.9834 12.1556C2.63184 12.5072 2.63184 13.0619 2.9834 13.4056ZM12.2334 13.4447C12.585 13.7963 13.1396 13.7963 13.4912 13.4447C13.835 13.1088 13.835 12.5385 13.4912 12.2025C13.1396 11.851 12.585 11.851 12.2334 12.2025C11.8896 12.5463 11.8896 13.101 12.2334 13.4447ZM8.25684 15.5931C8.74121 15.5931 9.13965 15.1947 9.13965 14.7025C9.13965 14.2181 8.74121 13.8197 8.25684 13.8197C7.77246 13.8197 7.36621 14.2181 7.36621 14.7025C7.36621 15.1947 7.76465 15.5931 8.25684 15.5931Z" fill="#F5F6F8"/>
</svg>
