<svg width="11" height="12" viewBox="0 0 11 12" fill="none" xmlns="http://www.w3.org/2000/svg">
<path d="M11 8.70508C11 8.8457 10.974 9.0306 10.9219 9.25977C10.8698 9.48372 10.8151 9.66081 10.7578 9.79102C10.6484 10.0514 10.3307 10.3275 9.80469 10.6191C9.3151 10.8848 8.83073 11.0176 8.35156 11.0176C8.21094 11.0176 8.07292 11.0098 7.9375 10.9941C7.80208 10.9733 7.65104 10.9395 7.48438 10.8926C7.32292 10.8457 7.20052 10.8092 7.11719 10.7832C7.03906 10.752 6.89583 10.6973 6.6875 10.6191C6.47917 10.541 6.35156 10.4941 6.30469 10.4785C5.79427 10.2962 5.33854 10.0801 4.9375 9.83008C4.27604 9.41862 3.58854 8.85612 2.875 8.14258C2.16146 7.42904 1.59896 6.74154 1.1875 6.08008C0.9375 5.67904 0.721354 5.22331 0.539063 4.71289C0.523438 4.66602 0.476563 4.53841 0.398438 4.33008C0.320313 4.12174 0.265625 3.97852 0.234375 3.90039C0.208333 3.81706 0.171875 3.69466 0.125 3.5332C0.078125 3.36654 0.0442708 3.21549 0.0234375 3.08008C0.0078125 2.94466 0 2.80664 0 2.66602C0 2.18685 0.132813 1.70247 0.398438 1.21289C0.690104 0.686849 0.966146 0.36914 1.22656 0.259765C1.35677 0.202474 1.53385 0.147786 1.75781 0.0957026C1.98698 0.0436192 2.17188 0.0175775 2.3125 0.0175775C2.38542 0.0175775 2.4401 0.0253901 2.47656 0.0410151C2.57031 0.0722653 2.70833 0.270182 2.89063 0.634765C2.94792 0.733723 3.02604 0.874348 3.125 1.05664C3.22396 1.23893 3.3151 1.4056 3.39844 1.55664C3.48177 1.70247 3.5625 1.84049 3.64063 1.9707C3.65625 1.99154 3.70052 2.05664 3.77344 2.16602C3.85156 2.27539 3.90885 2.36914 3.94531 2.44727C3.98177 2.52018 4 2.5931 4 2.66602C4 2.77018 3.92448 2.90039 3.77344 3.05664C3.6276 3.21289 3.46615 3.35612 3.28906 3.48633C3.11719 3.61654 2.95573 3.75456 2.80469 3.90039C2.65885 4.04622 2.58594 4.16602 2.58594 4.25977C2.58594 4.30664 2.59896 4.36654 2.625 4.43945C2.65104 4.50716 2.67188 4.55924 2.6875 4.5957C2.70833 4.63216 2.74479 4.69466 2.79688 4.7832C2.85417 4.87174 2.88542 4.92122 2.89063 4.93164C3.28646 5.64518 3.73958 6.25716 4.25 6.76758C4.76042 7.27799 5.3724 7.73112 6.08594 8.12695C6.09635 8.13216 6.14583 8.16341 6.23438 8.2207C6.32292 8.27279 6.38542 8.30924 6.42188 8.33008C6.45833 8.3457 6.51042 8.36654 6.57813 8.39258C6.65104 8.41862 6.71094 8.43164 6.75781 8.43164C6.85156 8.43164 6.97135 8.35872 7.11719 8.21289C7.26302 8.06185 7.40104 7.90039 7.53125 7.72852C7.66146 7.55143 7.80469 7.38997 7.96094 7.24414C8.11719 7.0931 8.2474 7.01758 8.35156 7.01758C8.42448 7.01758 8.4974 7.03581 8.57031 7.07227C8.64844 7.10872 8.74219 7.16602 8.85156 7.24414C8.96094 7.31706 9.02604 7.36133 9.04688 7.37695C9.17708 7.45508 9.3151 7.53581 9.46094 7.61914C9.61198 7.70247 9.77865 7.79362 9.96094 7.89258C10.1432 7.99154 10.2839 8.06966 10.3828 8.12695C10.7474 8.30924 10.9453 8.44727 10.9766 8.54102C10.9922 8.57747 11 8.63216 11 8.70508Z" fill="#EAEBF4" fill-opacity="0.4"/>
</svg>
