<svg width="6" height="9" viewBox="0 0 6 9" fill="none" xmlns="http://www.w3.org/2000/svg">
<path d="M3.03698 0.348389C1.41313 0.348389 0.0918694 1.66965 0.0918694 3.29367C0.0918694 3.71727 0.178572 4.12172 0.34944 4.49588C1.0858 6.10721 2.49761 7.80844 2.91287 8.2914C2.94398 8.32751 2.98933 8.34831 3.03707 8.34831C3.0848 8.34831 3.13016 8.32751 3.16127 8.2914C3.57636 7.80852 4.98817 6.10738 5.72477 4.49588C5.89572 4.12172 5.98234 3.71727 5.98234 3.29367C5.98218 1.66965 4.66092 0.348389 3.03698 0.348389ZM3.03698 4.82345C2.19345 4.82345 1.50712 4.13712 1.50712 3.29359C1.50712 2.44997 2.19345 1.76364 3.03698 1.76364C3.88052 1.76364 4.56685 2.44997 4.56685 3.29359C4.56693 4.13712 3.8806 4.82345 3.03698 4.82345Z" fill="#5A6B79"/>
</svg>
