<svg width="14" height="14" viewBox="0 0 14 14" fill="none" xmlns="http://www.w3.org/2000/svg">
<path d="M8.9668 7.99414C9.6543 7.30664 9.99805 6.48112 9.99805 5.51758C9.99805 4.55404 9.6543 3.73112 8.9668 3.04883C8.28451 2.36133 7.46159 2.01758 6.49805 2.01758C5.53451 2.01758 4.70898 2.36133 4.02148 3.04883C3.33919 3.73112 2.99805 4.55404 2.99805 5.51758C2.99805 6.48112 3.33919 7.30664 4.02148 7.99414C4.70898 8.67643 5.53451 9.01758 6.49805 9.01758C7.46159 9.01758 8.28451 8.67643 8.9668 7.99414ZM13.998 12.0176C13.998 12.2884 13.8991 12.5228 13.7012 12.7207C13.5033 12.9186 13.2689 13.0176 12.998 13.0176C12.7168 13.0176 12.4824 12.9186 12.2949 12.7207L9.61524 10.0488C8.68294 10.6947 7.64388 11.0176 6.49805 11.0176C5.75326 11.0176 5.03971 10.8743 4.35742 10.5879C3.68034 10.2962 3.0944 9.9056 2.59961 9.41602C2.11003 8.92122 1.7194 8.33529 1.42773 7.6582C1.14128 6.97591 0.998047 6.26237 0.998047 5.51758C0.998047 4.77279 1.14128 4.06185 1.42773 3.38476C1.7194 2.70247 2.11003 2.11654 2.59961 1.62695C3.0944 1.13216 3.68034 0.741536 4.35742 0.455078C5.03971 0.163411 5.75326 0.0175775 6.49805 0.0175775C7.24284 0.0175775 7.95378 0.163411 8.63086 0.455078C9.31315 0.741536 9.89909 1.13216 10.3887 1.62695C10.8835 2.11654 11.2741 2.70247 11.5605 3.38476C11.8522 4.06185 11.998 4.77279 11.998 5.51758C11.998 6.66341 11.6751 7.70247 11.0293 8.63477L13.709 11.3145C13.9017 11.5072 13.998 11.7415 13.998 12.0176Z" fill="#F4AF53"/>
</svg>
